# xmcd CD database file
#
# Track frame offsets:
#	150
#	13237
#	27037
#	41252
#	53362
#	66440
#	79335
#	90997
#	104285
#	116787
#	131087
#	143265
#	157457
#	170640
#	182582
#	193797
#	208785
#	221612
#	233767
#	246522
#	260277
#	274002
#	287175
#	301320
#	316247
#	329237
#
# Disc length: 4567 seconds
#
# Revision: 5
# Processed by: cddbd v1.5.2PL0 Copyright (c) Steve Scherf et al.
# Submitted via: CDex 1.99
#
DISCID=8211d51a
DTITLE=Various Artist - The Chess Story 1947-1975 CD 1: 1947-1950
DYEAR=1999
DGENRE=Soul/R&B
TTITLE0=The Five Blazers - Chicago Boogie
TTITLE1=Jump Jackson and His Orchestra - Hey Pretty Mama
TTITLE2=Tom Archia - Ice Man's Blues
TTITLE3=Clarence Samuels - Boogie Woogie Blues
TTITLE4=Andrew Tibbs - Bilbo is Dead
TTITLE5=Sunnyland Slim - Johnson Machine Gun
TTITLE6=Muddy Waters - Gypsy Woman
TTITLE7=Andrew Tibbs - I Feel Like Crying
TTITLE8=Sunnyland Slim - She Ain't Nowhere
TTITLE9=Muddy Waters - I Feel Like Going Home
TTITLE10=Muddy Waters - I Can't Be Satisfied
TTITLE11=Forrest Sykes - Tonky Boogie
TTITLE12=St. Louis Jimmy - Florida Hurricane
TTITLE13=Muddy Waters - You're Gonna Miss Me
TTITLE14=Leroy Foster - Locked Out Boogie
TTITLE15=Muddy Waters - Streamline Woman
TTITLE16=Forest City Joe - A Woman on Every Street
TTITLE17=Laura Rucker - Crying the Blues
TTITLE18=Duke Jenkins' Aristocrats - Baby I'm Sick of You
TTITLE19=Robert Nighthawk - Black Angel Blues (Sweet Black Angel)
TTITLE20=Muddy Waters - You're Gonna Need My Help
TTITLE21=Little Johnny Jones - Big Town Playboy
TTITLE22=Muddy Waters - Screamin' and Cryin'
TTITLE23=The Dozier Boys - All I Need Is You
TTITLE24=Robert Nighthawk - Six Three O
TTITLE25=Muddy Waters - Rollin' and Tumblin' [Part 1]
EXTD=YEAR: 1999
EXTT0=
EXTT1=
EXTT2=
EXTT3=
EXTT4=
EXTT5=
EXTT6=
EXTT7=
EXTT8=
EXTT9=
EXTT10=
EXTT11=
EXTT12=
EXTT13=
EXTT14=
EXTT15=
EXTT16=
EXTT17=
EXTT18=
EXTT19=
EXTT20=
EXTT21=
EXTT22=
EXTT23=
EXTT24=
EXTT25=
PLAYORDER=
